<?xml version="1.0" encoding="utf-8"?>
<!DOCTYPE svg PUBLIC "-//W3C//DTD SVG 1.1//EN" "http://www.w3.org/Graphics/SVG/1.1/DTD/svg11.dtd" [
	<!ENTITY ns_flows "http://ns.adobe.com/Flows/1.0/">
]>
<svg version="1.1"
	 xmlns="http://www.w3.org/2000/svg" xmlns:xlink="http://www.w3.org/1999/xlink" xmlns:a="http://ns.adobe.com/AdobeSVGViewerExtensions/3.0/"
	 x="0px" y="0px" width="568px" height="123px" viewBox="123.609 214.683 568 123"
	 overflow="visible" enable-background="new 123.609 214.683 568 123" xml:space="preserve">
<defs>
</defs>
<rect y="1" display="none" fill="#EFDFDF" width="800" height="600"/>
<path display="none" d="M801,601H0V0h801V601z M1,600h799V1H1V600z"/>
<path fill="#666666" d="M220.332,313.168c-0.166-0.333-9.166-13.251-9.166-13.251s-3.674-5.603-5.457-8.25
	c-0.351-0.52-0.525-0.907-0.043-1.333c2.834-2.5,5.666-10,5.666-10s4.168-11.333-6.166-25.166S168,245.834,168,245.834L137.125,252
	c-1.375,0.208-0.958,2.125-0.958,2.125s10.165,66.543,10.665,69.376s2.334,2,2.334,2s23.5-3.333,26-4s1.834-2.366,1.834-2.366
	s-3-14.301-2.5-14.467c0.37-0.123,3.024-0.428,4.377-0.58c0.779-0.088,1.248,0.62,1.248,0.62l8.207,12.626
	c2.667,2.5,4,1.667,4,1.667s24.834-3.5,26.5-3.833C220.499,314.835,220.5,313.501,220.332,313.168z M178.256,279.834
	c-2.006,0.833-4.922,0.583-4.922,0.583s-1.084,0.333-1.668-0.917c-0.582-1.25-1.582-9.083-1.582-9.083s-0.102-1.842,1.582-2
	c0,0,3.209-0.333,5.334-0.5c2.541-0.208,5.434,1.875,5.416,5C182.584,276.5,181.541,278.125,178.256,279.834z"/>
<path fill="#4D4D4D" d="M148.572,338.115c-6.979,0-12.757-5.116-14.05-12.441c-0.506-2.869-9.522-61.874-10.686-69.486
	c-0.38-2.207-0.632-6.654,2.242-10.828c2.065-2.999,5.158-4.992,8.746-5.648l31.108-6.206c0.531-0.089,5.382-0.871,11.918-0.871
	c17.065,0,29.974,5.205,37.33,15.052c13.988,18.724,8.55,35.15,7.884,36.961l-0.038,0.101c-0.626,1.659-1.557,3.906-2.767,6.245
	c0.601,0.913,1.069,1.626,1.263,1.92c9.422,13.524,9.479,13.637,9.996,14.675c1.857,3.682,1.855,8.222-0.03,12.093
	c-1.956,4.016-5.677,6.838-10.208,7.743c-1.622,0.324-14.971,2.228-26.277,3.822c-1.068,0.256-2.179,0.386-3.311,0.386
	c0,0-0.001,0-0.001,0c-1.78,0-4.128-0.336-6.728-1.576c-1.794,1.635-4.029,2.842-6.575,3.521c-2.106,0.562-11.09,1.972-26.709,4.191
	C150.767,337.976,149.724,338.115,148.572,338.115z M150.042,262.167c2.674,17.492,5.778,37.751,7.589,49.481
	c1.756-0.259,3.45-0.511,5.027-0.748c-0.131-0.747-0.241-1.412-0.331-1.991c-0.16-1.03-0.261-1.833-0.319-2.525
	c-0.606-7.217,3.859-12.021,8.554-13.579c0.041-0.014,0.081-0.027,0.122-0.04c-4.486-0.752-8.329-3.665-10.342-7.974
	c-0.599-1.287-1.41-3.028-2.656-12.791l-0.082-0.895c-0.246-4.452,1.51-8.535,4.496-11.346L150.042,262.167z M181.761,291.857
	c3.558,0.724,6.725,2.836,8.787,5.951l5.252,8.079c1.332-0.188,2.661-0.377,3.962-0.562c-1.195-1.817-3.233-4.912-4.421-6.674
	c-3.846-5.7-3.15-12.748,1.653-17.321c0.653-0.922,1.815-3.323,2.493-5.023c0.218-1.016,1.041-6.461-4.335-13.657
	c-1.349-1.806-4.062-3.193-7.737-4.045c0.866,0.604,1.683,1.288,2.435,2.044c3.204,3.222,4.994,7.458,5.064,11.963
	c0.299,8.237-3.364,14.397-10.89,18.312l-0.975,0.455C182.631,291.552,182.202,291.711,181.761,291.857z M169.938,273.466
	c0.137,1.808,0.915,3.534,2.184,4.81c0.963,0.969,2.173,1.63,3.508,1.935c0.789-0.301,1.533-0.691,2.22-1.158l-4.583-8.811
	l-2.176,0.121C170.451,271.354,169.99,272.526,169.938,273.466z M174.25,270.188l3.663,8.821c2.115-1.458,3.68-3.641,4.333-6.13
	c-0.776-1.178-1.774-2.182-2.925-2.971L174.25,270.188z M172.5,268.771c-0.482,0.363-0.954,0.9-1.358,1.512l2.011-0.257
	L172.5,268.771z M174.233,268.024c-0.195,0.052-0.457,0.135-0.771,0.266l0.669,1.611l4.29-0.548
	C177.145,268.647,175.723,268.188,174.233,268.024z"/>
<path fill="#666666" d="M221.25,239.75l54.75-4.625c0,0,1.75-0.625,2.5,2.312S282.75,255,282.75,255s0.375,2.125-1.625,2.375
	s-29.111,2.125-29.111,2.125s-2.264,0.125-2.264,3s1.75,2.75,1.75,2.75l21.375-1.5c0,0,1.625-0.748,1.75,1.501
	s1.25,15.749,1.25,15.749s0.375,1.625-1.5,1.875s-21,1.375-21,1.375s-1.472-0.125-1.361,3c0.111,3.125,1.861,2.5,1.861,2.5l30.875-2
	c0,0,1.875-0.375,1.625,1.25s-2.75,19-2.75,19s0.125,2-2.75,2.25s-52.75,4.125-52.75,4.125s-2.25,0.5-2.375-1.75s-5.348-71-5.348-71
	S220.091,239.848,221.25,239.75z"/>
<path fill="#4D4D4D" d="M227.613,326.922c-7.747,0-13.913-5.848-14.344-13.604c-0.125-2.061-3.234-43.143-5.308-70.446
	c-0.255-2.323-0.185-6.589,2.777-10.432c2.278-2.956,5.727-4.832,9.463-5.146l54.153-4.574c0.621-0.092,1.305-0.15,2.041-0.15
	c6.81,0,12.391,4.622,14.217,11.776c0.765,2.995,4.151,17.145,4.295,17.746l0.153,0.737c0.333,1.885,0.745,6.758-2.601,11.291
	c-1.347,1.825-3.078,3.267-5.07,4.254c0.162,2.062,0.372,4.648,0.573,7.109c3.014,0.592,5.733,2.142,7.712,4.449
	c2.556,2.979,3.669,6.978,3.055,10.971c-0.172,1.122-1.66,11.431-2.662,18.396c-0.593,6.344-5.63,12.669-14.109,13.406
	c-2.792,0.242-47.336,3.705-52.454,4.103C228.954,326.874,228.315,326.922,227.613,326.922z M233.668,251.246
	c1.065,14.04,2.771,36.546,3.768,49.868c2.938-0.229,6.019-0.468,9.126-0.71c-3.865-2.267-6.821-6.542-7.041-12.708
	c-0.211-5.99,2.128-9.716,4.128-11.788c0.111-0.115,0.224-0.228,0.339-0.339c-3.853-2.43-6.739-6.851-6.739-13.068
	c0-5.305,2.237-9.376,5.396-12.013L233.668,251.246z"/>
<path d="M361.75,277.25c-2-4.625-5.75-7.125-7.625-8s-1.25-1.5-1.25-1.5s7-6.125,7-15s-2.25-11.5-9.125-16.125s-15.5-4.5-15.5-4.5
	l-44.25,1.75c-1.758,0.069-1.875,1.875-1.875,1.875s3.25,70.5,3.25,71.875s1.875,1.072,1.875,1.072s33.5-0.822,46.875-2.322
	s17.625-7.75,20.625-12.75S363.75,281.875,361.75,277.25z M320.34,262.75c0.035-1.75,0.035-10.375,0.035-10.375
	s-0.5-2.438,2.25-2.438s5.875,0.406,7.375,2.156s1.625,7.578,0,9.453S326.877,265,323.625,265C322,265,322,265,322,265
	S320.304,264.5,320.34,262.75z M332.15,287.59c-1.555,1.934-4.02,2.864-7.27,2.984c-1.623,0.061-1.623,0.061-1.623,0.061
	s-1.687,0.312-1.716-1.438s-0.335-9.994-0.335-9.994s-0.583-2.23,2.165-2.332c2.748-0.103,6.89,0.281,8.453,1.975
	S333.704,285.656,332.15,287.59z"/>
<path fill="#4D4D4D" d="M293.832,321.226C293.831,321.226,293.831,321.226,293.832,321.226c-7.76,0-13.853-5.874-13.955-13.407
	c-0.087-2.801-1.979-44.178-3.238-71.493l-0.032-0.693l0.045-0.692c0.482-7.436,6.439-13.263,13.856-13.556l44.81-1.76
	c2.097,0,13.032,0.32,22.41,6.629c9.5,6.391,14.648,12.506,14.648,26.497c0,5.054-1.292,9.483-3.005,13.136
	c1.431,1.787,2.775,3.908,3.854,6.402c4.172,9.647,3.89,20.027-0.754,27.768c-4.893,8.155-12.278,16.759-29.951,18.741
	c-13.073,1.467-43.35,2.279-47.526,2.386C294.641,321.209,294.251,321.226,293.832,321.226z M304.856,306.968
	c0.013,0.351,0.019,0.568,0.019,0.654C304.875,307.402,304.869,307.185,304.856,306.968z M302.108,245.945
	c1.063,23.115,1.823,39.796,2.274,49.944c1.921-0.064,4.021-0.138,6.219-0.221c-0.963-1.869-1.52-3.993-1.557-6.263
	c-0.019-1.099-0.186-5.862-0.303-9.048c-0.355-3.167,0.352-6.41,2.003-9.119c-1.888-2.516-2.971-5.651-2.902-8.997
	c0.022-1.098,0.031-6.024,0.033-9.31c-0.187-2.499,0.275-5.017,1.317-7.267L302.108,245.945z M345.056,278.192
	c1.256,5.074,0.691,10.793-1.764,15.155c4.747-1.166,6.05-3.337,7.739-6.153c0.23-0.533,0.203-2.768-0.754-4.982
	c-0.47-1.086-1.503-1.666-1.513-1.671C347.285,279.851,346.064,279.049,345.056,278.192z M323.71,278.576
	c-0.413,0.269-0.876,0.652-1.302,1.182c-2.658,3.307-2.006,5.143,0.232,7.568c0.905,0.98,1.834,1.57,2.478,1.885
	c2.056-0.402,4.524-1.614,6.361-4.057c0.266-0.354,0.624-0.883,0.972-1.561c-1.661-2.723-4.47-4.726-7.681-5.281L323.71,278.576z
	 M324.309,278.242c-0.156,0.073-0.333,0.167-0.521,0.285l0.887-0.232C324.553,278.275,324.431,278.258,324.309,278.242z
	 M339.73,269.128c0.225,0.194,0.444,0.395,0.657,0.601c-0.059-0.443-0.094-0.886-0.107-1.328
	C340.104,268.651,339.921,268.894,339.73,269.128z M322.395,261.824c0.403,0.249,0.759,0.414,1.026,0.513
	c2.59-0.246,5.208-1.666,6.984-3.829c0.253-0.309,0.59-0.759,0.931-1.334c-1.469-2.494-3.999-4.522-7.513-5.04L322.395,261.824z
	 M320.343,253.346c-1.311,1.618-1.652,3.091-1.671,3.412c0.027,0.255,0.422,1.788,1.837,3.439c0.499,0.583,1.016,1.029,1.492,1.366
	l0.002-9.193C321.373,252.62,320.758,252.971,320.343,253.346z M340.698,245.566c2.424,3.826,3.347,9.056,2.771,13.951
	c0.182-0.208,0.371-0.41,0.567-0.606l0.553-0.528c0.827-0.83,2.786-3.287,2.786-5.633c0-1.978-0.152-2.887-0.228-3.216
	c-0.294-0.305-1.113-1.017-3.374-2.538C342.854,246.379,341.778,245.913,340.698,245.566z"/>
<path d="M442.125,243.5C429.875,227.375,407,229.25,407,229.25s-17.166,0.417-26.791,7.167s-13.334,17.833-13.334,17.833
	s-5.375,18.375,2.875,34.25s23,17.5,23,17.5s16.875,4.25,33.625-1.375s21.5-22.5,21.5-22.5S454.375,259.625,442.125,243.5z
	 M420.041,273.33c0,0-1.534,5.451-6.944,7.268c-5.411,1.817-10.862,0.444-10.862,0.444s-4.764-0.525-7.429-5.653
	s-0.929-11.062-0.929-11.062s1.197-3.581,4.307-5.761c3.109-2.181,8.654-2.315,8.654-2.315s7.389-0.605,11.346,4.603
	C422.142,266.062,420.041,273.33,420.041,273.33z"/>
<path fill="#4D4D4D" d="M407.379,320.039L407.379,320.039c-8.258,0-14.615-1.226-16.867-1.727
	c-8.184-1.205-23.224-7.443-31.854-24.048c-10.269-19.759-4.475-41.149-3.78-43.523l0.143-0.458
	c0.514-1.534,5.38-15.243,18.011-24.101c11.908-8.351,30.121-9.313,33.361-9.42c0.544-0.034,1.514-0.079,2.825-0.079
	c8.489,0,29.658,1.876,42.86,19.255c15.866,20.884,8.143,48.491,7.806,49.656c-2.405,8.547-11.363,24.78-29.529,30.88
	C423.312,318.84,415.581,320.039,407.379,320.039z M395.802,293.878c0.002,0,4.893,1.161,11.576,1.161
	c5.492,0,10.545-0.762,15.018-2.264c10.036-3.371,13.418-13.932,13.447-14.037c0.05-0.181,4.531-16.879-3.671-27.677
	c-6.611-8.702-19.24-9.378-22.954-9.378c-0.808,0-1.275,0.031-1.28,0.032l-0.388,0.032l-0.247,0
	c-4.379,0.127-15.053,1.494-19.917,4.905c-5.325,3.734-8.034,9.999-8.586,11.391c-0.496,2.023-3.238,14.536,2.042,24.694
	c4.622,8.894,12.245,10.632,13.394,10.847l1.005,0.068L395.802,293.878z M406.96,294.039c-3.176,0-5.707-0.424-7.019-0.701
	c-5.2-0.874-12.228-4.49-16.227-12.185c-4.741-9.122-2.36-18.542-1.834-20.337l0.142-0.453c0.587-1.757,2.971-7.816,8.986-12.033
	c5.54-3.885,12.774-4.482,15.258-4.568c0.323-0.018,0.76-0.033,1.287-0.033c4.005,0,14.025,0.932,20.583,9.562
	c7.539,9.922,4.307,22.148,3.913,23.51c-1.51,5.365-6.358,12.754-14.975,15.647C413.932,293.503,410.527,294.039,406.96,294.039z
	 M405.822,268.979c0.594,0.062,1.533,0.087,2.273-0.009c0.002-0.068,0.003-0.136,0.003-0.202c-0.134-0.018-0.271-0.031-0.405-0.037
	l-0.657,0.093l0.105-0.078c-0.364,0.016-0.86,0.077-1.32,0.157C405.821,268.929,405.821,268.954,405.822,268.979z"/>
<path d="M455.75,233.25c0,0-1.41,43.624-1.646,51.5c-0.367,12.312,10.771,19.812,19.146,22.5c7.509,2.409,22.28,3.221,29.188,1.062
	c8-2.5,20.258-7.573,20.758-20.886c0.512-13.63,1.805-52.177,1.805-52.177s0.75-1.875-1-2s-26.625-0.625-26.625-0.625
	s-1.875-0.25-2,1.625s-1.5,48.375-1.5,48.375s-0.75,4.25-4.875,4.25s-5.375-4.375-5.375-4.375l2-48.5c0,0,0.25-2.125-1.375-2.25
	s-26.625-0.625-26.625-0.625S455.817,230.998,455.75,233.25z"/>
<path fill="#4D4D4D" d="M491.329,322.064c-8.028,0-16.214-1.089-21.897-2.912c-13.187-4.231-28.385-15.878-27.821-34.775
	c0.235-7.881,1.646-51.531,1.646-51.531c0.242-8.095,6.397-14.223,14.316-14.223l0.582,0.01c11.513,0.23,25.431,0.529,27.054,0.653
	c2.248,0.173,4.36,0.859,6.21,1.991c1.972-0.845,4.243-1.259,6.504-1.145c9.446,0.19,25.187,0.521,26.968,0.648
	c4.479,0.32,8.378,2.626,10.696,6.328c1.805,2.883,2.445,6.381,1.865,9.784c-0.226,6.688-1.311,38.873-1.766,51.001
	c-0.401,10.674-5.848,24.95-29.521,32.348C502.298,321.452,497.307,322.064,491.329,322.064z M507.507,245.338
	c-0.318,10.208-0.791,25.932-1.138,37.656l-0.026,0.908l-0.158,0.895c-0.77,4.361-3.363,8.754-7.399,11.56
	c11.705-3.674,11.849-7.54,11.919-9.4c0.337-8.987,1.023-29.067,1.445-41.518C510.676,245.407,509.114,245.373,507.507,245.338z
	 M467.915,243.841c-0.433,13.4-1.153,35.85-1.316,41.283c-0.16,5.378,6.779,9.04,10.471,10.224c0.336,0.108,0.722,0.217,1.153,0.324
	c-3.345-2.608-5.619-6.245-6.616-9.738l-0.554-1.937l1.651-40.052C471.189,243.912,469.578,243.876,467.915,243.841z"/>
<path d="M534.5,234.562c0,0,23.812,1.521,24.562,1.594s2.083,0.969,3.594,3.672c2.073,3.71,8.594,20.172,8.594,20.172s1.75,1,1.75,0
	s0.875-19.875,0.875-19.875S573.625,238,575.5,238s25.25,1.5,25.25,1.5s1.375-0.25,1.25,1.375s-5.125,71.812-5.125,71.812
	s-0.25,1.719-1.875,1.719s-19.325-1.282-20.875-1.391c-0.653-0.046-2.312,0.032-3.375-2.383c-0.901-2.047-11.5-26.129-11.5-26.129
	s-1.875-1.877-2,0.248s-1.5,24.813-1.5,24.813s0,1.561-1.5,1.561s-25-1.561-25-1.561s-2-0.439-1.75-2.189s5.5-71,5.5-71
	S532.994,234.465,534.5,234.562z"/>
<path fill="#4D4D4D" d="M595,326.898c-0.791,0-1.875,0-20.561-1.333l-1.128-0.08c-4.181-0.229-7.825-1.874-10.564-4.671
	c-2.341,1.771-5.276,2.811-8.497,2.811c-0.474,0-1.915,0-25.828-1.588l-0.938-0.062l-0.917-0.201
	c-7.515-1.651-12.408-8.465-11.476-15.911c0.328-3.316,3.41-43.612,5.429-70.233c0.118-2.179,0.824-6.219,4.149-9.554
	c2.582-2.59,6.034-4.016,9.721-4.016c0.299,0,0.604,0.009,0.918,0.03c24.006,1.533,24.699,1.601,24.961,1.626
	c2.351,0.228,5.317,1.084,8.221,3.478c2.101-1.178,4.512-1.817,7.01-1.817c1.862,0,14.78,0.835,25.527,1.553
	c3.757,0.033,7.347,1.604,9.863,4.322c2.61,2.819,3.879,6.566,3.572,10.552c-0.104,1.357-3.395,47.532-5.119,71.757l-0.098,0.903
	C608.203,321.669,602.211,326.898,595,326.898z M539.951,308.447c-0.037,0.39-0.056,0.545-0.068,0.638
	C539.912,308.872,539.935,308.659,539.951,308.447z M580.127,300.907c1.902,0.134,3.57,0.25,5.029,0.352
	c0.955-13.401,2.591-36.357,3.571-50.083c-0.979-0.063-1.935-0.124-2.854-0.183c-0.202,4.433-0.355,7.917-0.375,8.65
	c-0.074,7.19-5.737,12.801-12.953,12.801c-3.172,0-5.828-1.137-7.498-2.091l-3.773-2.156l-1.621-4.032
	c-2.252-5.598-5.007-12.181-6.67-15.887c-2.341-0.153-5.269-0.342-8.31-0.538c-2.021,26.58-3.179,41.563-3.849,50.055
	c1.055,0.068,2.095,0.135,3.103,0.199c0.373-6.16,0.778-12.869,0.844-13.978c0.429-7.286,6.073-12.779,13.129-12.779
	c5.018,0,8.54,2.776,10.193,4.431l1.654,1.656L580.127,300.907z"/>
<path d="M665.625,252c-15-9.25-52-11.375-52-11.375c-1.76-0.12-2,1.875-2,1.875s-9.875,68.25-10.125,70.625s1.625,2.125,1.625,2.125
	s13.25,1.875,23.125,3s18.5,0.875,18.5,0.875s9.625-0.75,19-6.875s12.875-16.375,14.5-24.5S680.625,261.25,665.625,252z
	 M646.688,291.125c-0.413,0.599-2.029,3.16-6.407,4.5c-3.062,0.938-5.905,0.463-5.905-1.375c0-0.814,3.099-23.221,3.312-24.125
	c0.438-1.847,2.062-2.438,4.125-1.812c0,0,6.812,2.125,7.75,9S648.625,288.312,646.688,291.125z"/>
<path fill="#4D4D4D" d="M642.515,331.648c-3.394,0-10.203-0.127-17.68-0.979c-8.698-0.991-19.741-2.521-22.714-2.938
	c-3.664-0.221-7.102-1.854-9.536-4.559c-2.72-3.021-3.969-7.055-3.517-11.356c0.256-2.423,7.834-54.853,10.173-71.02
	c0.975-7.241,7.058-12.677,14.234-12.677c0.296,0,0.599,0.009,0.909,0.028c4.312,0.25,40.666,2.646,57.802,13.212
	c18.436,11.369,21.552,32.685,18.32,48.841c-2.977,14.882-9.679,25.822-19.92,32.513c-11.714,7.653-23.555,8.771-24.866,8.872
	l-0.608,0.033C645.112,331.62,644.164,331.648,642.515,331.648z M615.355,304.299c3.944,0.52,8.414,1.088,12.31,1.531
	c0.12,0.014,0.239,0.027,0.358,0.041c-4.034-2.778-6.148-7.285-6.148-11.621c0-2.68,3.611-26.848,3.648-27.002
	c1.376-5.81,5.723-10.032,11.29-11.289c-4.786-0.851-9.698-1.527-14.212-2.022C620.047,271.612,617.079,292.209,615.355,304.299z
	 M651.794,259.508c4.517,3.113,9.094,8.34,10.154,16.115c1.178,8.641-0.446,16.031-4.967,22.593c-2.359,3.46-5.308,5.765-8.122,7.3
	c2.357-0.729,5.243-1.895,8.054-3.731c4.538-2.964,7.423-8.203,9.08-16.487c0.546-2.733,2.781-16.67-6.93-22.659
	C657.214,261.499,654.713,260.454,651.794,259.508z"/>
<path fill="#666666" d="M220.332,311.168c-0.166-0.333-9.166-13.251-9.166-13.251s-3.674-5.603-5.457-8.25
	c-0.351-0.52-0.525-0.907-0.043-1.333c2.834-2.5,5.666-10,5.666-10s4.168-11.333-6.166-25.166S168,243.834,168,243.834L137.125,250
	c-1.375,0.208-0.958,2.125-0.958,2.125s10.165,66.543,10.665,69.376s2.334,2,2.334,2s23.5-3.333,26-4s1.834-2.366,1.834-2.366
	s-3-14.301-2.5-14.467c0.37-0.123,3.024-0.428,4.377-0.58c0.779-0.088,1.248,0.62,1.248,0.62l8.207,12.626
	c2.667,2.5,4,1.667,4,1.667s24.834-3.5,26.5-3.833C220.499,312.835,220.5,311.501,220.332,311.168z M178.256,277.834
	c-2.006,0.833-4.922,0.583-4.922,0.583s-1.084,0.333-1.668-0.917c-0.582-1.25-1.582-9.083-1.582-9.083s-0.102-1.842,1.582-2
	c0,0,3.209-0.333,5.334-0.5c2.541-0.208,5.434,1.875,5.416,5C182.584,274.5,181.541,276.125,178.256,277.834z"/>
<path fill="#FFFFFF" d="M148.572,336.115c-6.979,0-12.757-5.116-14.05-12.441c-0.506-2.869-9.522-61.874-10.686-69.486
	c-0.38-2.207-0.632-6.654,2.242-10.828c2.065-2.999,5.158-4.992,8.746-5.648l31.108-6.206c0.531-0.089,5.382-0.871,11.918-0.871
	c17.065,0,29.974,5.205,37.33,15.052c13.988,18.724,8.55,35.15,7.884,36.961l-0.038,0.101c-0.626,1.659-1.557,3.906-2.767,6.245
	c0.601,0.913,1.069,1.626,1.263,1.92c9.422,13.524,9.479,13.637,9.996,14.675c1.857,3.682,1.855,8.222-0.03,12.093
	c-1.956,4.016-5.677,6.838-10.208,7.743c-1.622,0.324-14.971,2.228-26.277,3.822c-1.068,0.256-2.179,0.386-3.311,0.386
	c0,0-0.001,0-0.001,0c-1.78,0-4.128-0.336-6.728-1.576c-1.794,1.635-4.029,2.842-6.575,3.521c-2.106,0.562-11.09,1.972-26.709,4.191
	C150.767,335.976,149.724,336.115,148.572,336.115z M150.042,260.167c2.674,17.492,5.778,37.751,7.589,49.481
	c1.756-0.259,3.45-0.511,5.027-0.748c-0.131-0.747-0.241-1.412-0.331-1.991c-0.16-1.03-0.261-1.833-0.319-2.525
	c-0.606-7.217,3.859-12.021,8.554-13.579c0.041-0.014,0.081-0.027,0.122-0.04c-4.486-0.752-8.329-3.665-10.342-7.974
	c-0.599-1.287-1.41-3.028-2.656-12.791l-0.082-0.895c-0.246-4.452,1.51-8.535,4.496-11.346L150.042,260.167z M181.761,289.857
	c3.558,0.724,6.725,2.836,8.787,5.951l5.252,8.079c1.332-0.188,2.661-0.377,3.962-0.562c-1.195-1.817-3.233-4.912-4.421-6.674
	c-3.846-5.7-3.15-12.748,1.653-17.321c0.653-0.922,1.815-3.323,2.493-5.023c0.218-1.016,1.041-6.461-4.335-13.657
	c-1.349-1.806-4.062-3.193-7.737-4.045c0.866,0.604,1.683,1.288,2.435,2.044c3.204,3.222,4.994,7.458,5.064,11.963
	c0.299,8.237-3.364,14.397-10.89,18.312l-0.975,0.455C182.631,289.552,182.202,289.711,181.761,289.857z M174.233,266.024"/>
<path fill="#666666" d="M221.25,237.75l54.75-4.625c0,0,1.75-0.625,2.5,2.312S282.75,253,282.75,253s0.375,2.125-1.625,2.375
	s-29.111,2.125-29.111,2.125s-2.264,0.125-2.264,3s1.75,2.75,1.75,2.75l21.375-1.5c0,0,1.625-0.748,1.75,1.501
	s1.25,15.749,1.25,15.749s0.375,1.625-1.5,1.875s-21,1.375-21,1.375s-1.472-0.125-1.361,3c0.111,3.125,1.861,2.5,1.861,2.5l30.875-2
	c0,0,1.875-0.375,1.625,1.25s-2.75,19-2.75,19s0.125,2-2.75,2.25s-52.75,4.125-52.75,4.125s-2.25,0.5-2.375-1.75s-5.348-71-5.348-71
	S220.091,237.848,221.25,237.75z"/>
<path fill="#FFFFFF" d="M227.613,324.922c-7.747,0-13.913-5.848-14.344-13.604c-0.125-2.061-3.234-43.143-5.308-70.446
	c-0.255-2.323-0.185-6.589,2.777-10.432c2.278-2.956,5.727-4.832,9.463-5.146l54.153-4.574c0.621-0.092,1.305-0.15,2.041-0.15
	c6.81,0,12.391,4.622,14.217,11.776c0.765,2.995,4.151,17.145,4.295,17.746l0.153,0.737c0.333,1.885,0.745,6.758-2.601,11.291
	c-1.347,1.825-3.078,3.267-5.07,4.254c0.162,2.062,0.372,4.648,0.573,7.109c3.014,0.592,5.733,2.142,7.712,4.449
	c2.556,2.979,3.669,6.978,3.055,10.971c-0.172,1.122-1.66,11.432-2.662,18.396c-0.593,6.344-5.63,12.669-14.109,13.406
	c-2.792,0.242-47.336,3.705-52.454,4.103C228.954,324.874,228.315,324.922,227.613,324.922z M233.668,249.246
	c1.065,14.04,2.771,36.546,3.768,49.868c2.938-0.229,6.019-0.468,9.126-0.71c-3.865-2.267-6.821-6.542-7.041-12.708
	c-0.211-5.99,2.128-9.716,4.128-11.788c0.111-0.115,0.224-0.228,0.339-0.339c-3.853-2.43-6.739-6.851-6.739-13.068
	c0-5.305,2.237-9.376,5.396-12.013L233.668,249.246z"/>
<path d="M361.75,275.25c-2-4.625-5.75-7.125-7.625-8s-1.25-1.5-1.25-1.5s7-6.125,7-15s-2.25-11.5-9.125-16.125s-15.5-4.5-15.5-4.5
	l-44.25,1.75c-1.758,0.069-1.875,1.875-1.875,1.875s3.25,70.5,3.25,71.875s1.875,1.072,1.875,1.072s33.5-0.822,46.875-2.322
	s17.625-7.75,20.625-12.75S363.75,279.875,361.75,275.25z M320.34,260.75c0.035-1.75,0.035-10.375,0.035-10.375
	s-0.5-2.438,2.25-2.438s5.875,0.406,7.375,2.156s1.625,7.578,0,9.453S326.877,263,323.625,263C322,263,322,263,322,263
	S320.304,262.5,320.34,260.75z M332.15,285.59c-1.555,1.934-4.02,2.864-7.27,2.984c-1.623,0.061-1.623,0.061-1.623,0.061
	s-1.687,0.312-1.716-1.438s-0.335-9.994-0.335-9.994s-0.583-2.23,2.165-2.332c2.748-0.103,6.89,0.281,8.453,1.975
	S333.704,283.656,332.15,285.59z"/>
<path fill="#FFFFFF" d="M293.832,319.226C293.831,319.226,293.831,319.226,293.832,319.226c-7.76,0-13.853-5.874-13.955-13.407
	c-0.087-2.801-1.979-44.178-3.238-71.493l-0.032-0.693l0.045-0.692c0.482-7.436,6.439-13.263,13.856-13.556l44.81-1.76
	c2.097,0,13.032,0.32,22.41,6.629c9.5,6.391,14.648,12.506,14.648,26.497c0,5.054-1.292,9.483-3.005,13.136
	c1.431,1.787,2.775,3.908,3.854,6.402c4.172,9.647,3.89,20.027-0.754,27.768c-4.893,8.155-12.278,16.759-29.951,18.741
	c-13.073,1.467-43.35,2.279-47.526,2.386C294.641,319.209,294.251,319.226,293.832,319.226z M304.856,304.968
	c0.013,0.351,0.019,0.568,0.019,0.654C304.875,305.402,304.869,305.185,304.856,304.968z M302.108,243.945
	c1.063,23.115,1.823,39.796,2.274,49.944c1.921-0.064,4.021-0.138,6.219-0.221c-0.963-1.869-1.52-3.993-1.557-6.263
	c-0.019-1.099-0.186-5.862-0.303-9.048c-0.355-3.167,0.352-6.41,2.003-9.119c-1.888-2.516-2.971-5.651-2.902-8.997
	c0.022-1.098,0.031-6.024,0.033-9.31c-0.187-2.499,0.275-5.017,1.317-7.267L302.108,243.945z M345.056,276.192
	c1.256,5.074,0.691,10.793-1.764,15.155c4.747-1.166,6.05-3.337,7.739-6.153c0.23-0.533,0.203-2.768-0.754-4.982
	c-0.47-1.086-1.503-1.666-1.513-1.671C347.285,277.851,346.064,277.049,345.056,276.192z M339.73,267.128
	c0.225,0.194,0.444,0.395,0.657,0.601c-0.059-0.443-0.094-0.886-0.107-1.328C340.104,266.651,339.921,266.894,339.73,267.128z
	 M331.336,255.173 M320.343,251.346 M340.698,243.566c2.424,3.826,3.347,9.056,2.771,13.951c0.182-0.208,0.371-0.41,0.567-0.606
	l0.553-0.528c0.827-0.83,2.786-3.287,2.786-5.633c0-1.978-0.152-2.887-0.228-3.216c-0.294-0.305-1.113-1.017-3.374-2.538
	C342.854,244.379,341.778,243.913,340.698,243.566z"/>
<path fill="#FFFFFF" d="M442.125,241.5C429.875,225.375,407,227.25,407,227.25s-17.166,0.417-26.791,7.167
	s-13.334,17.833-13.334,17.833s-5.375,18.375,2.875,34.25s23,17.5,23,17.5s16.875,4.25,33.625-1.375s21.5-22.5,21.5-22.5
	S454.375,257.625,442.125,241.5z M420.041,271.33c0,0-1.534,5.451-6.944,7.268c-5.411,1.817-10.862,0.444-10.862,0.444
	s-4.764-0.525-7.429-5.653s-0.929-11.062-0.929-11.062s1.197-3.581,4.307-5.761c3.109-2.181,8.654-2.315,8.654-2.315
	s7.389-0.605,11.346,4.603C422.142,264.062,420.041,271.33,420.041,271.33z"/>
<path fill="#FFFFFF" d="M407.379,318.039L407.379,318.039c-8.258,0-14.615-1.226-16.867-1.727
	c-8.184-1.205-23.224-7.443-31.854-24.048c-10.269-19.759-4.475-41.149-3.78-43.523l0.143-0.458
	c0.514-1.534,5.38-15.243,18.011-24.101c11.908-8.351,30.121-9.313,33.361-9.42c0.544-0.034,1.514-0.079,2.825-0.079
	c8.489,0,29.658,1.876,42.86,19.255c15.866,20.884,8.143,48.491,7.806,49.656c-2.405,8.547-11.363,24.78-29.529,30.88
	C423.312,316.84,415.581,318.039,407.379,318.039z M395.802,291.878c0.002,0,4.893,1.161,11.576,1.161
	c5.492,0,10.545-0.762,15.018-2.264c10.036-3.371,13.418-13.932,13.447-14.037c0.05-0.181,4.531-16.879-3.671-27.677
	c-6.611-8.702-19.24-9.378-22.954-9.378c-0.808,0-1.275,0.031-1.28,0.032l-0.388,0.032l-0.247,0
	c-4.379,0.127-15.053,1.494-19.917,4.905c-5.325,3.734-8.034,9.999-8.586,11.391c-0.496,2.023-3.238,14.536,2.042,24.694
	c4.622,8.894,12.245,10.632,13.394,10.847l1.005,0.068L395.802,291.878z M406.96,292.039c-3.176,0-5.707-0.424-7.019-0.701
	c-5.2-0.874-12.228-4.49-16.227-12.185c-4.741-9.122-2.36-18.542-1.834-20.337l0.142-0.453c0.587-1.757,2.971-7.816,8.986-12.033
	c5.54-3.885,12.774-4.482,15.258-4.568c0.323-0.018,0.76-0.033,1.287-0.033c4.005,0,14.025,0.932,20.583,9.562
	c7.539,9.922,4.307,22.148,3.913,23.51c-1.51,5.365-6.358,12.754-14.975,15.647C413.932,291.503,410.527,292.039,406.96,292.039z
	 M405.822,266.979c0.594,0.062,1.533,0.086,2.273-0.009c0.002-0.068,0.003-0.136,0.003-0.202c-0.134-0.018-0.271-0.031-0.405-0.037
	l-0.657,0.093l0.105-0.078c-0.364,0.016-0.86,0.077-1.32,0.157C405.821,266.929,405.821,266.954,405.822,266.979z"/>
<path d="M455.75,231.25c0,0-1.41,43.624-1.646,51.5c-0.367,12.312,10.771,19.812,19.146,22.5c7.509,2.409,22.28,3.221,29.188,1.062
	c8-2.5,20.258-7.573,20.758-20.886c0.512-13.63,1.805-52.177,1.805-52.177s0.75-1.875-1-2s-26.625-0.625-26.625-0.625
	s-1.875-0.25-2,1.625s-1.5,48.375-1.5,48.375s-0.75,4.25-4.875,4.25s-5.375-4.375-5.375-4.375l2-48.5c0,0,0.25-2.125-1.375-2.25
	s-26.625-0.625-26.625-0.625S455.817,228.998,455.75,231.25z"/>
<path fill="#FFFFFF" d="M491.329,320.064c-8.028,0-16.214-1.089-21.897-2.912c-13.187-4.231-28.385-15.878-27.821-34.775
	c0.235-7.881,1.646-51.531,1.646-51.531c0.242-8.095,6.397-14.223,14.316-14.223l0.582,0.01c11.513,0.23,25.431,0.529,27.054,0.653
	c2.248,0.173,4.36,0.859,6.21,1.991c1.972-0.845,4.243-1.261,6.504-1.145c9.446,0.19,25.187,0.521,26.968,0.648
	c4.479,0.32,8.378,2.626,10.696,6.328c1.805,2.883,2.445,6.381,1.865,9.784c-0.226,6.688-1.311,38.873-1.766,51.001
	c-0.401,10.674-5.848,24.95-29.521,32.348C502.298,319.452,497.307,320.064,491.329,320.064z M507.507,243.338
	c-0.318,10.208-0.791,25.932-1.138,37.656l-0.026,0.908l-0.158,0.895c-0.77,4.361-3.363,8.754-7.399,11.56
	c11.705-3.674,11.849-7.54,11.919-9.4c0.337-8.987,1.023-29.067,1.445-41.518C510.676,243.407,509.114,243.373,507.507,243.338z
	 M467.915,241.841c-0.433,13.4-1.153,35.85-1.316,41.283c-0.16,5.378,6.779,9.04,10.471,10.224c0.336,0.108,0.722,0.217,1.153,0.324
	c-3.345-2.608-5.619-6.245-6.616-9.738l-0.554-1.937l1.651-40.052C471.189,241.912,469.578,241.876,467.915,241.841z"/>
<path d="M534.5,232.562c0,0,23.812,1.521,24.562,1.594s2.083,0.969,3.594,3.672c2.073,3.71,8.594,20.172,8.594,20.172s1.75,1,1.75,0
	s0.875-19.875,0.875-19.875S573.625,236,575.5,236s25.25,1.5,25.25,1.5s1.375-0.25,1.25,1.375s-5.125,71.812-5.125,71.812
	s-0.25,1.719-1.875,1.719s-19.325-1.282-20.875-1.391c-0.653-0.046-2.312,0.032-3.375-2.383c-0.901-2.047-11.5-26.129-11.5-26.129
	s-1.875-1.877-2,0.248s-1.5,24.813-1.5,24.813s0,1.561-1.5,1.561s-25-1.561-25-1.561s-2-0.439-1.75-2.189s5.5-71,5.5-71
	S532.994,232.465,534.5,232.562z"/>
<path fill="#FFFFFF" d="M595,324.898c-0.791,0-1.875,0-20.561-1.333l-1.128-0.08c-4.181-0.229-7.825-1.874-10.564-4.671
	c-2.341,1.771-5.276,2.811-8.497,2.811c-0.474,0-1.915,0-25.828-1.588l-0.938-0.062l-0.917-0.201
	c-7.515-1.651-12.408-8.465-11.476-15.911c0.328-3.316,3.41-43.612,5.429-70.233c0.118-2.179,0.824-6.219,4.149-9.554
	c2.582-2.59,6.034-4.016,9.721-4.016c0.299,0,0.604,0.009,0.918,0.03c24.006,1.533,24.699,1.601,24.961,1.626
	c2.351,0.228,5.317,1.084,8.221,3.478c2.101-1.178,4.512-1.817,7.01-1.817c1.862,0,14.78,0.835,25.527,1.553
	c3.757,0.033,7.347,1.604,9.863,4.322c2.61,2.819,3.879,6.566,3.572,10.552c-0.104,1.357-3.395,47.532-5.119,71.757l-0.098,0.903
	C608.203,319.669,602.211,324.898,595,324.898z M539.951,306.447c-0.037,0.39-0.056,0.545-0.068,0.638
	C539.912,306.872,539.935,306.659,539.951,306.447z M580.127,298.907c1.902,0.134,3.57,0.251,5.029,0.352
	c0.955-13.401,2.591-36.357,3.571-50.083c-0.979-0.063-1.935-0.124-2.854-0.183c-0.202,4.433-0.355,7.917-0.375,8.65
	c-0.074,7.19-5.737,12.801-12.953,12.801c-3.172,0-5.828-1.137-7.498-2.091l-3.773-2.156l-1.621-4.032
	c-2.252-5.598-5.007-12.181-6.67-15.887c-2.341-0.153-5.269-0.342-8.31-0.538c-2.021,26.58-3.179,41.563-3.849,50.055
	c1.055,0.068,2.095,0.135,3.103,0.199c0.373-6.16,0.778-12.869,0.844-13.978c0.429-7.286,6.073-12.779,13.129-12.779
	c5.018,0,8.54,2.776,10.193,4.431l1.654,1.656L580.127,298.907z"/>
<path d="M665.625,250c-15-9.25-52-11.375-52-11.375c-1.76-0.12-2,1.875-2,1.875s-9.875,68.25-10.125,70.625s1.625,2.125,1.625,2.125
	s13.25,1.875,23.125,3s18.5,0.875,18.5,0.875s9.625-0.75,19-6.875s12.875-16.375,14.5-24.5S680.625,259.25,665.625,250z
	 M646.688,289.125c-0.413,0.599-2.029,3.16-6.407,4.5c-3.062,0.938-5.905,0.463-5.905-1.375c0-0.814,3.099-23.221,3.312-24.125
	c0.438-1.847,2.062-2.438,4.125-1.812c0,0,6.812,2.125,7.75,9S648.625,286.312,646.688,289.125z"/>
<path fill="#FFFFFF" d="M642.515,329.648c-3.394,0-10.203-0.127-17.68-0.979c-8.698-0.991-19.741-2.521-22.714-2.938
	c-3.664-0.221-7.102-1.854-9.536-4.559c-2.72-3.021-3.969-7.055-3.517-11.356c0.256-2.423,7.834-54.853,10.173-71.02
	c0.975-7.241,7.058-12.677,14.234-12.677c0.296,0,0.599,0.009,0.909,0.028c4.312,0.25,40.666,2.646,57.802,13.212
	c18.436,11.369,21.552,32.685,18.32,48.841c-2.977,14.882-9.679,25.822-19.92,32.513c-11.714,7.653-23.555,8.771-24.866,8.872
	l-0.608,0.033C645.112,329.62,644.164,329.648,642.515,329.648z M615.355,302.299c3.944,0.52,8.414,1.088,12.31,1.531
	c0.12,0.014,0.239,0.027,0.358,0.041c-4.034-2.778-6.148-7.285-6.148-11.621c0-2.68,3.611-26.848,3.648-27.002
	c1.376-5.81,5.723-10.032,11.29-11.289c-4.786-0.851-9.698-1.527-14.212-2.022C620.047,269.612,617.079,290.209,615.355,302.299z
	 M651.794,257.508c4.517,3.113,9.094,8.34,10.154,16.115c1.178,8.641-0.446,16.031-4.967,22.593c-2.359,3.46-5.308,5.765-8.122,7.3
	c2.357-0.729,5.243-1.895,8.054-3.731c4.538-2.965,7.423-8.204,9.08-16.487c0.546-2.733,2.781-16.67-6.93-22.659
	C657.214,259.499,654.713,258.454,651.794,257.508z"/>
<path fill="#4D4D4D" d="M480.875,307.431c-3.559-3.893-9.25-13.217-15.898-11.415c-2.772,0.753-1.724,5.457-2.818,7.369
	c-1.539,2.682-3.846,4.937-4.359,8.057c-2.636,15.975,25.295,7.518,32.734,9.49c5.998,1.591,15.646,3.652,21.291,0.438
	c3.486-1.985,4.498-5.587,2.795-9.283c-1.922-4.152-1.426-6.91-2.344-11.139c-1.785-8.202-13.355,1.383-15.701,3.845
	C491.636,309.976,487.412,309.25,480.875,307.431L480.875,307.431z"/>
<path fill="#4D4D4D" d="M503.948,335.564c-6.068,0-12.077-1.36-16.2-2.439c-0.125-0.007-0.323-0.014-0.611-0.014
	c-1.474,0-3.617,0.164-5.887,0.337c-3.056,0.232-6.519,0.496-9.975,0.496c-6.441,0-15.695-0.813-21.664-7.848
	c-2.635-3.105-5.493-8.522-4.146-16.69c0.813-4.945,3.254-8.451,4.869-10.771c0.036-0.052,0.072-0.104,0.108-0.156
	c1.276-9.804,6.795-13.315,11.257-14.527c1.632-0.442,3.306-0.666,4.98-0.666c10.061,0,16.777,7.585,20.978,12.744
	c1.575-1.622,10.971-10.839,21.075-10.839c7.84,0,14.024,5.141,15.756,13.098c0.464,2.136,0.664,3.919,0.824,5.352
	c0.221,1.976,0.295,2.429,0.649,3.195c4.417,9.586,1.068,20.258-7.953,25.396C514.127,334.443,509.396,335.564,503.948,335.564z"/>
<path fill="#4D4D4D" d="M482.104,307.083c2.214-0.007,6.86-0.78,8.743,0.498c3.112,2.123,2.804,10.896-0.397,12.854
	C480.612,326.453,474.188,309.114,482.104,307.083L482.104,307.083z"/>
<path fill="#4D4D4D" d="M486.377,334.198c-10.109,0-18.774-8.246-20.155-19.182c-1.207-9.561,4.046-17.802,12.775-20.042
	l1.509-0.387l1.56-0.005c0.309-0.006,0.712-0.041,1.152-0.071c1.08-0.075,2.424-0.167,3.866-0.167c2.799,0,6.963,0.3,10.784,2.895
	c5.051,3.445,7.829,9.646,7.646,17.03c-0.185,7.486-3.298,13.62-8.541,16.828C493.61,333.155,490.046,334.198,486.377,334.198z
	 M485.068,318.639c0.294,0.141,0.568,0.254,0.819,0.346c3.596-1.276,5.417-4.883,5.137-7.1c-0.177-1.406-2.393-2.687-4.647-2.687
	c-1.115,0-2.018,0.31-2.451,0.574c-0.353,0.216-0.672,0.441-0.96,0.67L485.068,318.639z M480.54,313.671
	c0.111,0.562,0.597,1.665,1.593,2.776l-0.017-5.236C481.106,312.252,480.662,313.245,480.54,313.671z"/>
<path fill="#FFFFFF" d="M480.928,305.516c-3.558-3.893-9.251-13.217-15.898-11.416c-2.773,0.752-1.724,5.458-2.819,7.369
	c-1.539,2.682-3.845,4.938-4.359,8.057c-2.633,15.975,25.294,7.519,32.734,9.49c5.999,1.59,15.646,3.653,21.291,0.438
	c3.485-1.984,4.501-5.587,2.795-9.283c-1.922-4.152-1.424-6.911-2.344-11.139c-1.78-8.203-13.356,1.386-15.7,3.846
	C491.688,308.06,487.465,307.334,480.928,305.516L480.928,305.516z"/>
<path fill="#FFFFFF" d="M504.002,333.648c-6.063,0-12.075-1.36-16.2-2.439c-0.125-0.007-0.324-0.013-0.612-0.013
	c-1.473,0-3.616,0.163-5.886,0.336c-3.056,0.232-6.52,0.497-9.976,0.497c-6.44,0-15.693-0.813-21.663-7.848
	c-2.635-3.105-5.494-8.521-4.148-16.688c0.816-4.949,3.256-8.453,4.869-10.772c0.037-0.053,0.073-0.105,0.109-0.157
	c1.277-9.807,6.799-13.318,11.263-14.528c1.628-0.441,3.3-0.664,4.975-0.664c10.061,0,16.777,7.585,20.979,12.745
	c1.573-1.62,10.971-10.84,21.077-10.84c7.843,0,14.027,5.144,15.755,13.105c0.463,2.128,0.663,3.915,0.823,5.35
	c0.221,1.973,0.295,2.426,0.648,3.189c2.273,4.925,3.02,10.451,1.47,15.054c-0.021,0.061-0.566-0.189-0.588-0.129
	c-1.488,4.275-4.51,8.008-8.836,10.471C514.18,332.527,509.449,333.648,504.002,333.648z"/>
<path fill="#FFFFFF" d="M482.418,305.508c2.212-0.008,6.861-0.781,8.742,0.498c3.117,2.12,2.802,10.896-0.397,12.854
	C480.925,324.879,474.505,307.535,482.418,305.508L482.418,305.508z"/>
<path fill="#FFFFFF" d="M486.69,332.622c-10.111,0-18.775-8.248-20.154-19.186c-1.205-9.562,4.05-17.801,12.779-20.038l1.505-0.386
	l1.554-0.005c0.309-0.006,0.711-0.041,1.15-0.071c1.082-0.075,2.428-0.167,3.873-0.167c2.802,0,6.97,0.301,10.793,2.901
	c5.032,3.423,7.817,9.619,7.64,17c-0.181,7.497-3.294,13.639-8.542,16.852C493.925,331.579,490.359,332.622,486.69,332.622z
	 M485.379,317.063c0.294,0.142,0.569,0.255,0.821,0.347c3.597-1.276,5.42-4.883,5.14-7.101c-0.177-1.406-2.394-2.688-4.649-2.688
	c-1.116,0-2.019,0.31-2.452,0.575c-0.353,0.216-0.671,0.44-0.96,0.67L485.379,317.063z M480.854,312.092
	c0.11,0.564,0.597,1.67,1.597,2.785l-0.019-5.245C481.422,310.673,480.977,311.666,480.854,312.092z"/>
<path fill="#FFFFFF" d="M483.664,306.115c2.211-0.007,6.863-0.78,8.742,0.499c3.119,2.118,2.801,10.896-0.397,12.854
	C482.175,325.485,475.748,308.148,483.664,306.115L483.664,306.115z"/>
<path fill="#FFFFFF" d="M487.938,321.23c-4.477,0-7.71-4.415-8.249-8.684c-0.448-3.541,1.028-6.19,3.852-6.916l0.122-0.016
	c0.529-0.002,1.2-0.049,1.939-0.1c0.942-0.064,2.011-0.139,3.041-0.139c1.935,0,3.22,0.262,4.045,0.824
	c1.853,1.258,2.451,4.328,2.393,6.782c-0.061,2.547-0.83,5.699-2.811,6.911C490.821,320.781,489.363,321.23,487.938,321.23z
	 M483.73,306.615c-3.395,0.914-3.193,4.672-3.05,5.807c0.484,3.838,3.332,7.809,7.257,7.809c1.239,0,2.521-0.4,3.811-1.189
	c1.328-0.812,2.266-3.257,2.332-6.081c0.065-2.753-0.702-5.081-1.955-5.932c-0.643-0.438-1.782-0.651-3.482-0.651
	c-0.995,0-2.046,0.072-2.973,0.137C484.936,306.564,484.267,306.609,483.73,306.615z"/>
<path fill="#BC2222" d="M220.332,311.168c-0.166-0.333-9.166-13.251-9.166-13.251s-3.674-5.603-5.457-8.25
	c-0.351-0.52-0.525-0.907-0.043-1.333c2.834-2.5,5.666-10,5.666-10s4.168-11.333-6.166-25.166S168,243.834,168,243.834L137.125,250
	c-1.375,0.209-0.958,2.125-0.958,2.125s10.165,66.543,10.665,69.376s2.334,2,2.334,2s23.5-3.333,26-4s1.834-2.366,1.834-2.366
	s-3-14.301-2.5-14.467c0.37-0.123,3.024-0.428,4.377-0.58c0.779-0.088,1.248,0.62,1.248,0.62l8.207,12.626
	c2.667,2.5,4,1.667,4,1.667s24.834-3.5,26.5-3.833C220.499,312.835,220.5,311.501,220.332,311.168z M178.256,277.834
	c-2.006,0.833-4.922,0.583-4.922,0.583s-1.084,0.333-1.668-0.917c-0.582-1.25-1.582-9.083-1.582-9.083s-0.102-1.842,1.582-2
	c0,0,3.209-0.333,5.334-0.5c2.541-0.208,5.434,1.875,5.416,5C182.584,274.5,181.541,276.125,178.256,277.834z"/>
<path fill="#BC2222" d="M221.25,237.75l54.75-4.625c0,0,1.75-0.625,2.5,2.312S282.75,253,282.75,253s0.375,2.125-1.625,2.375
	s-29.111,2.125-29.111,2.125s-2.264,0.125-2.264,3s1.75,2.75,1.75,2.75l21.375-1.5c0,0,1.625-0.748,1.75,1.501
	s1.25,15.749,1.25,15.749s0.375,1.625-1.5,1.875s-21,1.375-21,1.375s-1.472-0.125-1.361,3c0.111,3.125,1.861,2.5,1.861,2.5l30.875-2
	c0,0,1.875-0.375,1.625,1.25s-2.75,19-2.75,19s0.125,2-2.75,2.25s-52.75,4.125-52.75,4.125s-2.25,0.5-2.375-1.75s-5.348-71-5.348-71
	S220.091,237.848,221.25,237.75z"/>
<path fill="#4C413D" d="M361.75,275.25c-2-4.625-5.75-7.125-7.625-8s-1.25-1.5-1.25-1.5s7-6.125,7-15s-2.25-11.5-9.125-16.125
	s-15.5-4.5-15.5-4.5l-44.25,1.75c-1.758,0.069-1.875,1.875-1.875,1.875s3.25,70.5,3.25,71.875s1.875,1.072,1.875,1.072
	s33.5-0.822,46.875-2.322s17.625-7.75,20.625-12.75S363.75,279.875,361.75,275.25z M320.34,260.25
	c0.035-1.75,0.035-10.125,0.035-10.125s-0.5-2.312,2.25-2.312s5.875,0.469,7.375,2.219s1.625,7.109,0,8.984S326.877,262,323.625,262
	C322,262,322,262,322,262S320.304,262,320.34,260.25z M332.15,285.59c-1.555,1.934-4.02,2.864-7.27,2.984
	c-1.623,0.061-1.623,0.061-1.623,0.061s-1.687,0.312-1.716-1.438s-0.335-9.994-0.335-9.994s-0.583-2.23,2.165-2.332
	c2.748-0.103,6.89,0.281,8.453,1.975S333.704,283.656,332.15,285.59z"/>
<path fill="#4C413D" d="M442.125,241.5C429.875,225.375,407,227.25,407,227.25s-17.166,0.417-26.791,7.167
	s-13.334,17.833-13.334,17.833s-5.375,18.375,2.875,34.25s23,17.5,23,17.5s16.875,4.25,33.625-1.375s21.5-22.5,21.5-22.5
	S454.375,257.625,442.125,241.5z M420.041,271.33c0,0-1.534,5.451-6.944,7.268c-5.411,1.817-9.862,0.444-9.862,0.444
	s-4.764-0.525-7.429-5.653s-0.929-11.062-0.929-11.062s1.197-3.581,4.307-5.761c3.109-2.181,7.654-2.315,7.654-2.315
	s7.389-0.605,11.346,4.603C422.142,264.062,420.041,271.33,420.041,271.33z"/>
<path fill="#4C413D" d="M534.5,232.562c0,0,23.812,1.521,24.562,1.594s2.083,0.469,3.594,3.172
	c2.073,3.71,8.594,19.672,8.594,19.672s1.75,1,1.75,0s0.875-19.375,0.875-19.375s-0.25-1.875,1.625-1.875s25.25,1.625,25.25,1.625
	s1.375-0.188,1.25,1.438s-5.125,71.844-5.125,71.844s-0.25,1.734-1.875,1.734s-19.325-1.274-20.875-1.383
	c-0.653-0.046-2.312,0.036-3.375-2.379c-0.901-2.047-11.5-26.127-11.5-26.127s-1.875-1.877-2,0.248s-1.5,24.814-1.5,24.814
	s0,1.561-1.5,1.561s-25-1.561-25-1.561s-2-0.439-1.75-2.189s5.5-71,5.5-71S532.994,232.465,534.5,232.562z"/>
<path fill="#4C413D" d="M665.625,250c-15-9.25-52-11.375-52-11.375c-1.76-0.12-2,1.875-2,1.875s-9.875,68.25-10.125,70.625
	s1.625,2.125,1.625,2.125s13.25,1.875,23.125,3s18.5,0.875,18.5,0.875s9.625-0.75,19-6.875s12.875-16.375,14.5-24.5
	S680.625,259.25,665.625,250z M646.688,289.125c-0.413,0.599-2.029,3.16-6.407,4.5c-3.062,0.938-5.905,0.463-5.905-1.375
	c0-0.814,3.099-23.221,3.312-24.125c0.438-1.847,2.062-2.438,4.125-1.812c0,0,6.812,2.125,7.75,9S648.625,286.312,646.688,289.125z"
	/>
<path fill="#4C413D" d="M455.75,231.25c0,0-1.41,43.624-1.646,51.5c-0.367,12.312,10.771,19.812,19.146,22.5
	c7.509,2.409,22.28,3.221,29.188,1.062c8-2.5,20.258-7.573,20.758-20.886c0.512-13.63,1.805-52.177,1.805-52.177s0.75-1.875-1-2
	s-26.625-0.625-26.625-0.625s-1.875-0.25-2,1.625s-1.5,48.375-1.5,48.375s-0.75,4.25-4.875,4.25s-5.375-4.375-5.375-4.375l2-48.5
	c0,0,0.25-2.125-1.375-2.25s-26.625-0.625-26.625-0.625S455.817,228.998,455.75,231.25z"/>
<path fill="#BC2222" d="M480.928,306.516c-3.558-3.893-9.251-13.217-15.898-11.416c-2.773,0.752-1.724,5.458-2.819,7.369
	c-1.539,2.682-3.845,4.938-4.359,8.057c-2.633,15.975,25.294,7.519,32.734,9.49c5.999,1.59,15.646,3.653,21.291,0.438
	c3.485-1.984,4.501-5.587,2.795-9.283c-1.922-4.152-1.424-6.911-2.344-11.139c-1.78-8.203-13.356,1.386-15.7,3.846
	C491.688,309.06,487.465,308.334,480.928,306.516L480.928,306.516z"/>
<path fill="#333333" d="M482.905,307.266c2.207,0.151,6.9-0.286,8.685,1.125c2.956,2.339,2.012,11.068-1.32,12.792
	c-3.044,1.574-6.715,1.14-8.568-0.425C478.265,317.858,477.256,308.287,482.905,307.266L482.905,307.266z"/>
<path fill="#333333" d="M486.163,322.419c-1.831,0-3.517-0.536-4.623-1.47c-2.289-1.932-3.5-6.61-2.591-10.013
	c0.58-2.175,1.97-3.565,3.911-3.917c0.59,0.033,1.283,0.035,2.018,0.037c2.428,0.007,5.448,0.016,6.867,1.138
	c1.68,1.329,2.033,4.345,1.804,6.725c-0.299,3.1-1.541,5.646-3.164,6.485C489.102,322.068,487.642,322.419,486.163,322.419z
	 M482.888,307.515c-2.169,0.4-3.082,2.152-3.456,3.551c-0.85,3.183,0.309,7.711,2.431,9.501c1.019,0.859,2.586,1.353,4.301,1.353
	c1.398,0,2.779-0.331,3.991-0.958c1.478-0.765,2.614-3.154,2.896-6.09c0.272-2.825-0.362-5.292-1.616-6.284
	c-1.282-1.015-4.332-1.023-6.558-1.03C484.134,307.555,483.433,307.553,482.888,307.515z"/>
<path fill="#BC2222" d="M482.978,306.269c2.207,0.151,6.899-0.286,8.684,1.125c2.957,2.338,2.012,11.068-1.319,12.791
	c-3.044,1.575-6.716,1.14-8.569-0.424C478.336,316.86,477.328,307.29,482.978,306.269L482.978,306.269z"/>
<rect x="404" y="266" fill="#FFFFFF" width="5" height="3"/>
<path fill="#FFFFFF" d="M410,269h-6v-4h6V269z M405,268h4v-2h-4V268z"/>
</svg>
