<?xml version="1.0" encoding="utf-8"?>
<!-- Generator: Adobe Illustrator 15.0.0, SVG Export Plug-In . SVG Version: 6.00 Build 0)  -->
<!DOCTYPE svg PUBLIC "-//W3C//DTD SVG 1.1//EN" "http://www.w3.org/Graphics/SVG/1.1/DTD/svg11.dtd">
<svg version="1.1" id="Layer_1" xmlns="http://www.w3.org/2000/svg" xmlns:xlink="http://www.w3.org/1999/xlink" x="0px" y="0px"
	 width="340px" height="180px" viewBox="0 0 340 180" enable-background="new 0 0 340 180" xml:space="preserve">
<g>
	<g>
		<path opacity="0.15" d="M171.08,140.484c14.284,0,21.44-1.488,31.518-3.68c20.768,14.282,53.891,42.85,92.009,42.85
			c5.784,0,45.742-14.633,45.391-94.2c-0.349-79.566-36.452-82.371-36.452-82.371c-25.631,0-76.586,32.072-102.174,54.694
			c-8.851-2.643-18.774-3.694-31.075-3.694c-12.301,0-22.816,1.051-31.667,3.694C113.042,35.155,62.086,3.083,36.455,3.083
			c0,0-36.103,2.805-36.453,82.371c-0.35,79.567,39.608,94.2,45.391,94.2c38.118,0,71.242-28.567,92.009-42.85
			C147.479,138.996,156.796,140.484,171.08,140.484z"/>
		<path fill="#2E87DD" d="M171.08,137.33c14.284,0,21.44-1.489,31.518-3.681c20.768,14.283,53.891,42.851,92.009,42.851
			c5.784,0,45.742-14.634,45.391-94.2c-0.349-79.566-36.452-82.371-36.452-82.371c-25.631,0-76.586,32.072-102.174,54.694
			c-8.851-2.643-18.774-3.694-31.075-3.694c-12.301,0-22.816,1.052-31.667,3.694C113.042,32,62.086-0.071,36.455-0.071
			c0,0-36.103,2.805-36.453,82.371s39.608,94.2,45.391,94.2c38.118,0,71.242-28.567,92.009-42.851
			C147.479,135.841,156.796,137.33,171.08,137.33z"/>
		<path fill="#FFFFFF" d="M67.385,114.406c-0.092-0.186-5.098-7.371-5.098-7.371s-2.043-3.116-3.036-4.589
			c-0.195-0.288-0.292-0.504-0.023-0.741c1.576-1.391,3.151-5.562,3.151-5.562s2.318-6.304-3.43-13.999
			c-5.749-7.694-20.674-5.192-20.674-5.192l-17.174,3.43c-0.765,0.116-0.533,1.182-0.533,1.182s5.654,37.015,5.933,38.591
			c0.278,1.576,1.298,1.111,1.298,1.111s13.072-1.854,14.462-2.224c1.39-0.372,1.021-1.316,1.021-1.316s-1.668-7.956-1.39-8.047
			c0.205-0.069,1.682-0.238,2.434-0.323c0.433-0.049,0.694,0.345,0.694,0.345l4.565,7.024c1.484,1.391,2.225,0.926,2.225,0.926
			s13.814-1.945,14.741-2.132C67.478,115.334,67.479,114.592,67.385,114.406z M43.98,95.864c-1.115,0.464-2.738,0.324-2.738,0.324
			s-0.603,0.187-0.928-0.509c-0.324-0.697-0.88-5.054-0.88-5.054s-0.057-1.024,0.88-1.112c0,0,1.784-0.185,2.967-0.278
			c1.413-0.115,3.022,1.043,3.013,2.782C46.387,94.01,45.808,94.914,43.98,95.864z"/>
		<g>
			<path fill="#FFFFFF" d="M66.896,73.568l30.454-2.574c0,0,0.974-0.347,1.391,1.287c0.418,1.634,2.364,9.769,2.364,9.769
				s0.209,1.182-0.903,1.322c-1.112,0.139-16.192,1.182-16.192,1.182s-1.26,0.07-1.26,1.669c0,1.599,0.974,1.53,0.974,1.53
				l11.89-0.834c0,0,0.904-0.416,0.974,0.834c0.069,1.251,0.694,8.761,0.694,8.761s0.209,0.902-0.833,1.043
				c-1.043,0.139-11.681,0.765-11.681,0.765s-0.818-0.069-0.757,1.669c0.062,1.737,1.035,1.391,1.035,1.391l17.174-1.113
				c0,0,1.043-0.209,0.904,0.695c-0.139,0.904-1.53,10.569-1.53,10.569s0.07,1.112-1.529,1.251
				c-1.599,0.14-29.341,2.295-29.341,2.295s-1.253,0.278-1.322-0.974c-0.07-1.251-2.975-39.494-2.975-39.494
				S66.251,73.623,66.896,73.568z"/>
			<path fill="#FFFFFF" d="M145.049,94.428c-1.113-2.572-3.199-3.964-4.242-4.451c-1.042-0.487-0.695-0.834-0.695-0.834
				s3.894-3.407,3.894-8.344c0-4.937-1.251-6.397-5.076-8.97s-8.622-2.503-8.622-2.503L105.694,70.3
				c-0.978,0.039-1.043,1.043-1.043,1.043s1.808,39.216,1.808,39.979c0,0.766,1.043,0.598,1.043,0.598s18.634-0.457,26.075-1.293
				c7.439-0.833,9.803-4.311,11.473-7.091C146.716,100.754,146.161,97,145.049,94.428z M122.014,86.084
				c0.021-0.974,0.021-5.633,0.021-5.633s-0.279-1.287,1.251-1.287c1.53,0,3.268,0.261,4.102,1.234c0.835,0.974,0.905,3.955,0,4.998
				c-0.903,1.043-1.736,1.659-3.546,1.659c-0.903,0-0.903,0-0.903,0S121.994,87.056,122.014,86.084z M128.583,100.18
				c-0.864,1.074-2.236,1.592-4.043,1.658c-0.903,0.035-0.903,0.035-0.903,0.035s-0.938,0.173-0.954-0.801
				c-0.016-0.973-0.187-5.559-0.187-5.559s-0.324-1.241,1.205-1.297c1.529-0.058,3.833,0.156,4.702,1.098
				C129.273,96.256,129.448,99.104,128.583,100.18z"/>
			<path fill="#FFFFFF" d="M189.201,75.654c-6.56-8.555-18.983-7.927-18.983-7.927s-8.482-0.348-14.902,3.987
				c-5.42,3.66-7.416,9.919-7.416,9.919s-2.99,10.222,1.599,19.052c4.589,8.83,12.794,9.733,12.794,9.733s8.831,2.364,18.147-0.765
				c9.318-3.129,11.959-12.516,11.959-12.516S196.055,84.593,189.201,75.654z M176.916,92.246c0,0-0.854,3.033-3.862,4.043
				c-3.011,1.012-4.93,0.248-4.93,0.248s-2.65-0.293-4.132-3.146c-1.481-2.851-0.516-6.152-0.516-6.152s0.665-1.992,2.395-3.204
				c1.73-1.214,4.259-1.289,4.259-1.289s3.554-0.337,5.754,2.561C178.085,88.204,176.916,92.246,176.916,92.246z"/>
			<path fill="#FFFFFF" d="M240.584,70.683c0,0,13.245,0.845,13.662,0.886c0.418,0.041,1.159,0.261,1.999,1.764
				c1.153,2.064,4.78,10.942,4.78,10.942s0.974,0.557,0.974,0s0.487-10.777,0.487-10.777s-0.139-1.043,0.903-1.043
				c1.043,0,14.046,0.905,14.046,0.905s0.765-0.105,0.695,0.799s-2.851,39.963-2.851,39.963s-0.139,0.964-1.043,0.964
				s-10.75-0.708-11.611-0.769c-0.364-0.026-1.286,0.021-1.878-1.323c-0.502-1.139-6.397-14.533-6.397-14.533
				s-1.043-1.045-1.111,0.138c-0.07,1.183-0.835,13.804-0.835,13.804s0,0.867-0.834,0.867c-0.835,0-13.906-0.867-13.906-0.867
				s-1.113-0.244-0.974-1.219c0.139-0.973,3.06-39.493,3.06-39.493S239.746,70.628,240.584,70.683z"/>
			<path fill="#FFFFFF" d="M313.522,80.382c-8.345-5.145-28.926-6.327-28.926-6.327c-0.979-0.066-1.112,1.042-1.112,1.042
				s-5.492,37.964-5.632,39.286c-0.139,1.32,0.903,1.182,0.903,1.182s7.371,1.043,12.864,1.669c5.492,0.626,10.29,0.487,10.29,0.487
				s5.354-0.418,10.569-3.824c5.214-3.408,7.161-9.109,8.064-13.629C321.449,95.748,321.866,85.527,313.522,80.382z
				 M302.987,102.146c-0.229,0.333-1.128,1.757-3.563,2.503c-1.703,0.521-3.284,0.258-3.284-0.766
				c0-0.453,1.724-12.916,1.842-13.419c0.243-1.027,1.148-1.355,2.295-1.007c0,0,3.789,1.182,4.312,5.007
				C305.109,98.287,304.065,100.58,302.987,102.146z"/>
			<path fill="#FFFFFF" d="M196.779,69.953c0,0-0.784,24.265-0.916,28.646c-0.203,6.849,5.992,11.021,10.651,12.516
				c4.176,1.341,12.393,1.792,16.234,0.592c4.451-1.391,11.269-4.214,11.547-11.618c0.284-7.582,1.004-29.023,1.004-29.023
				s0.417-1.043-0.557-1.112c-0.974-0.07-14.81-0.348-14.81-0.348s-1.043-0.139-1.113,0.903c-0.069,1.043-0.834,26.908-0.834,26.908
				s-0.416,2.365-2.712,2.365c-2.295,0-2.989-2.434-2.989-2.434l1.112-26.978c0,0,0.139-1.182-0.765-1.252
				c-0.904-0.07-14.811-0.347-14.811-0.347S196.816,68.7,196.779,69.953z"/>
		</g>
	</g>
	<path opacity="0.15" d="M137.402,133.649c0,0-5.373-8.017-6.134-15.916c-0.789-8.182,0.175,13.287,2.559,18.422
		C135.659,134.75,137.402,133.649,137.402,133.649z"/>
	<path opacity="0.15" d="M202.598,133.649c0,0,5.278-8.017,6.04-15.916c0.788-8.182-0.118,13.261-2.501,18.396
		C204.306,134.725,202.598,133.649,202.598,133.649z"/>
</g>
</svg>
