<?xml version="1.0" encoding="utf-8"?>
<!-- Generator: Adobe Illustrator 15.0.0, SVG Export Plug-In . SVG Version: 6.00 Build 0)  -->
<!DOCTYPE svg PUBLIC "-//W3C//DTD SVG 1.1//EN" "http://www.w3.org/Graphics/SVG/1.1/DTD/svg11.dtd">
<svg version="1.1" id="Layer_1" xmlns="http://www.w3.org/2000/svg" xmlns:xlink="http://www.w3.org/1999/xlink" x="0px" y="0px"
	 width="150px" height="98.229px" viewBox="0 0 150 98.229" enable-background="new 0 0 150 98.229" xml:space="preserve">
<g>
	<path opacity="0.15" d="M75.173,47.624c4.738,0,7.111-0.494,10.453-1.221c6.889,4.736,17.875,14.213,30.521,14.213
		c1.917,0,15.173-4.854,15.056-31.245c-0.116-26.396-12.092-27.323-12.092-27.323c-8.503,0-25.405,10.639-33.892,18.142
		c-2.936-0.878-6.227-1.226-10.308-1.226s-7.568,0.348-10.506,1.226C55.922,12.687,39.019,2.048,30.516,2.048
		c0,0-11.976,0.928-12.091,27.323c-0.117,26.392,13.14,31.245,15.055,31.245c12.645,0,23.634-9.477,30.521-14.213
		C67.344,47.13,70.435,47.624,75.173,47.624z"/>
	<path fill="#2E87DD" d="M75.173,45.578c4.738,0,7.111-0.496,10.453-1.221c6.889,4.737,17.875,14.211,30.521,14.211
		c1.917,0,15.173-4.854,15.056-31.246C131.087,0.929,119.111,0,119.111,0c-8.503,0-25.405,10.64-33.892,18.146
		c-2.936-0.878-6.227-1.229-10.308-1.229s-7.568,0.351-10.506,1.229C55.922,10.64,39.019,0,30.516,0c0,0-11.976,0.929-12.091,27.322
		c-0.117,26.393,13.14,31.246,15.055,31.246c12.645,0,23.634-9.474,30.521-14.211C67.344,45.082,70.435,45.578,75.173,45.578z"/>
	<path opacity="0.15" d="M64,44.357c0,0-1.782-6.661-2.036-9.279c-0.26-2.716-0.039,8.986-0.039,10.748
		C62.532,45.358,64,44.357,64,44.357z"/>
	<path opacity="0.15" d="M85.626,44.357c0,0,1.752-6.661,2.005-9.279c0.261-2.716,0.04,8.88,0.04,10.726
		C87.062,45.339,85.626,44.357,85.626,44.357z"/>
</g>
<g>
	<path fill="#2E87DD" d="M23.31,94.785c-0.046-0.095-2.536-3.669-2.536-3.669s-1.016-1.552-1.511-2.284
		c-0.096-0.142-0.146-0.25-0.013-0.367c0.786-0.692,1.568-2.768,1.568-2.768s1.156-3.136-1.703-6.967
		c-2.862-3.829-10.288-2.581-10.288-2.581l-8.545,1.705c-0.382,0.058-0.266,0.587-0.266,0.587s2.812,18.417,2.952,19.201
		c0.139,0.784,0.646,0.555,0.646,0.555s6.501-0.923,7.194-1.108c0.691-0.186,0.509-0.652,0.509-0.652s-0.831-3.96-0.694-4.006
		c0.103-0.034,0.84-0.117,1.212-0.161c0.217-0.024,0.347,0.172,0.347,0.172l2.272,3.495c0.737,0.693,1.108,0.461,1.108,0.461
		s6.871-0.967,7.332-1.062C23.356,95.247,23.356,94.876,23.31,94.785z M11.664,85.558c-0.552,0.229-1.359,0.161-1.359,0.161
		s-0.301,0.095-0.464-0.251c-0.159-0.348-0.438-2.516-0.438-2.516s-0.028-0.508,0.438-0.556c0,0,0.889-0.09,1.478-0.136
		c0.703-0.057,1.503,0.517,1.499,1.384C12.863,84.635,12.575,85.088,11.664,85.558z"/>
	<path fill="#2E87DD" d="M23.564,74.467l15.153-1.284c0,0,0.484-0.171,0.691,0.641c0.207,0.813,1.177,4.862,1.177,4.862
		s0.105,0.589-0.449,0.657c-0.554,0.068-8.057,0.589-8.057,0.589s-0.628,0.033-0.628,0.828c0,0.797,0.484,0.761,0.484,0.761
		l5.917-0.414c0,0,0.449-0.206,0.483,0.414c0.036,0.625,0.345,4.361,0.345,4.361s0.106,0.447-0.415,0.518
		c-0.518,0.069-5.811,0.382-5.811,0.382s-0.405-0.035-0.376,0.829c0.031,0.865,0.516,0.691,0.516,0.691l8.542-0.554
		c0,0,0.522-0.104,0.452,0.347c-0.071,0.45-0.762,5.259-0.762,5.259s0.035,0.556-0.762,0.625
		c-0.795,0.065-14.599,1.138-14.599,1.138s-0.622,0.141-0.656-0.483c-0.037-0.623-1.482-19.65-1.482-19.65
		S23.246,74.491,23.564,74.467z"/>
	<path fill="#2E87DD" d="M62.449,84.843c-0.551-1.279-1.589-1.973-2.109-2.216c-0.52-0.24-0.346-0.411-0.346-0.411
		s1.938-1.698,1.938-4.155c0-2.456-0.624-3.18-2.527-4.46c-1.901-1.282-4.289-1.248-4.289-1.248L42.87,72.839
		c-0.487,0.02-0.521,0.519-0.521,0.519s0.901,19.512,0.901,19.893c0,0.379,0.518,0.298,0.518,0.298s9.272-0.228,12.975-0.645
		c3.701-0.414,4.877-2.146,5.706-3.529C63.281,87.991,63.004,86.122,62.449,84.843z M50.99,80.693
		c0.011-0.484,0.011-2.806,0.011-2.806s-0.141-0.638,0.62-0.638c0.762,0,1.626,0.13,2.039,0.613c0.418,0.485,0.452,1.968,0,2.486
		c-0.446,0.52-0.861,0.826-1.761,0.826c-0.453,0-0.453,0-0.453,0S50.979,81.176,50.99,80.693z M54.258,87.704
		c-0.431,0.534-1.112,0.793-2.012,0.826c-0.448,0.016-0.448,0.016-0.448,0.016s-0.467,0.087-0.476-0.396s-0.092-2.766-0.092-2.766
		s-0.163-0.618,0.597-0.645c0.762-0.031,1.908,0.075,2.343,0.544C54.604,85.752,54.688,87.171,54.258,87.704z"/>
	<path fill="#2E87DD" d="M84.42,75.501c-3.267-4.254-9.448-3.941-9.448-3.941s-4.219-0.176-7.413,1.982
		c-2.696,1.819-3.69,4.937-3.69,4.937s-1.486,5.085,0.795,9.476c2.285,4.396,6.368,4.847,6.368,4.847s4.394,1.178,9.027-0.383
		c4.638-1.556,5.948-6.224,5.948-6.224S87.829,79.95,84.42,75.501z M78.308,83.758c0,0-0.428,1.51-1.925,2.012
		c-1.495,0.504-2.451,0.124-2.451,0.124s-1.318-0.146-2.057-1.564c-0.737-1.421-0.256-3.064-0.256-3.064s0.331-0.992,1.192-1.593
		c0.858-0.603,2.118-0.641,2.118-0.641s1.769-0.169,2.865,1.274C78.888,81.747,78.308,83.758,78.308,83.758z"/>
	<path fill="#2E87DD" d="M109.985,73.029c0,0,6.59,0.42,6.797,0.441c0.211,0.02,0.578,0.13,0.994,0.879
		c0.574,1.025,2.378,5.442,2.378,5.442s0.487,0.275,0.487,0c0-0.277,0.238-5.36,0.238-5.36s-0.066-0.521,0.453-0.521
		s6.987,0.449,6.987,0.449s0.381-0.051,0.349,0.398c-0.038,0.451-1.42,19.885-1.42,19.885s-0.07,0.479-0.52,0.479
		s-5.35-0.352-5.777-0.382c-0.18-0.014-0.64,0.01-0.935-0.658c-0.249-0.568-3.184-7.233-3.184-7.233s-0.518-0.52-0.554,0.07
		c-0.033,0.587-0.414,6.866-0.414,6.866s0,0.432-0.416,0.432s-6.917-0.432-6.917-0.432s-0.557-0.12-0.486-0.604
		c0.07-0.487,1.523-19.651,1.523-19.651S109.567,73.002,109.985,73.029z"/>
	<path fill="#2E87DD" d="M146.277,77.854c-4.151-2.56-14.395-3.148-14.395-3.148c-0.485-0.031-0.552,0.521-0.552,0.521
		s-2.734,18.888-2.803,19.545c-0.068,0.659,0.448,0.588,0.448,0.588s3.666,0.519,6.402,0.831c2.731,0.312,5.118,0.243,5.118,0.243
		s2.666-0.21,5.263-1.904c2.592-1.693,3.562-4.533,4.01-6.781C150.219,85.501,150.428,80.414,146.277,77.854z M141.034,88.683
		c-0.113,0.164-0.561,0.874-1.773,1.247c-0.847,0.259-1.634,0.127-1.634-0.381c0-0.228,0.857-6.425,0.916-6.679
		c0.122-0.508,0.573-0.674,1.143-0.503c0,0,1.885,0.59,2.144,2.494C142.091,86.762,141.57,87.904,141.034,88.683z"/>
	<path fill="#2E87DD" d="M88.188,72.668c0,0-0.389,12.071-0.454,14.251c-0.102,3.406,2.98,5.482,5.299,6.227
		c2.078,0.666,6.166,0.893,8.079,0.295c2.213-0.691,5.606-2.098,5.743-5.781c0.144-3.772,0.501-14.442,0.501-14.442
		s0.207-0.518-0.278-0.549c-0.484-0.037-7.366-0.175-7.366-0.175s-0.522-0.069-0.556,0.448c-0.031,0.519-0.414,13.388-0.414,13.388
		s-0.207,1.177-1.351,1.177c-1.143,0-1.488-1.211-1.488-1.211l0.556-13.422c0,0,0.069-0.588-0.38-0.623
		c-0.45-0.035-7.371-0.173-7.371-0.173S88.21,72.04,88.188,72.668z"/>
</g>
</svg>
