<?xml version="1.0" encoding="utf-8"?>
<!-- Generator: Adobe Illustrator 15.0.0, SVG Export Plug-In . SVG Version: 6.00 Build 0)  -->
<!DOCTYPE svg PUBLIC "-//W3C//DTD SVG 1.1//EN" "http://www.w3.org/Graphics/SVG/1.1/DTD/svg11.dtd">
<svg version="1.1" id="Layer_1" xmlns="http://www.w3.org/2000/svg" xmlns:xlink="http://www.w3.org/1999/xlink" x="0px" y="0px"
	 width="60px" height="32.716px" viewBox="0 0 60 32.716" enable-background="new 0 0 60 32.716" xml:space="preserve">
<g>
	<path opacity="0.15" d="M30.191,25.804c2.521,0,3.783-0.263,5.562-0.649c3.665,2.521,9.51,7.562,16.237,7.562
		c1.021,0,8.072-2.582,8.01-16.623C59.938,2.051,53.567,1.557,53.567,1.557c-4.523,0-13.516,5.66-18.031,9.652
		c-1.562-0.467-3.312-0.652-5.483-0.652s-4.026,0.186-5.589,0.652c-4.515-3.992-13.507-9.652-18.03-9.652
		c0,0-6.371,0.494-6.433,14.536c-0.062,14.041,6.99,16.623,8.01,16.623c6.727,0,12.572-5.041,16.237-7.562
		C26.026,25.541,27.67,25.804,30.191,25.804z"/>
	<path fill="#2E87DD" d="M30.191,24.247c2.521,0,3.783-0.263,5.562-0.649c3.665,2.521,9.51,7.562,16.237,7.562
		c1.021,0,8.072-2.582,8.01-16.624C59.938,0.494,53.567,0,53.567,0c-4.523,0-13.516,5.66-18.031,9.652
		C33.974,9.186,32.223,9,30.052,9s-4.026,0.186-5.589,0.652C19.949,5.66,10.957,0,6.433,0c0,0-6.371,0.494-6.433,14.535
		c-0.062,14.042,6.99,16.624,8.01,16.624c6.727,0,12.572-5.041,16.237-7.562C26.026,23.984,27.67,24.247,30.191,24.247z"/>
	<path opacity="0.15" d="M24.248,23.598c0,0-0.948-2.415-1.083-3.809c-0.139-1.444-0.021,3.72-0.021,4.59
		C23.466,24.131,24.248,23.598,24.248,23.598z"/>
	<path opacity="0.15" d="M35.752,23.598c0,0,0.932-2.415,1.066-3.809c0.139-1.444,0.021,3.76,0.021,4.578
		C36.517,24.119,35.752,23.598,35.752,23.598z"/>
</g>
</svg>
